PathFileType        4      (X/Y/Z)      C:\Users\pc\Desktop\IMUTRC\Sujet_05\Sujet_05_velo_100.trc         
DataRate	CameraRate	NumFrames	NumMarkers	Units	OrigDataRate	OrigDataStartFrame	OrigNumFrames
60.0	60.0	4	64	mm	60.0	843	963
Frame#	Time	pHipOrigin			pRightASI			pLeftASI			pRightCSI			pLeftCSI			pRightIschialTub			pLeftIschialTub			pSacrum			pL5SpinalProcess			pL3SpinalProcess			pT12SpinalProcess			pIJ			pT4SpinalProcess			pT8SpinalProcess			pPX			pC7SpinalProcess			pTopOfHead			pRightAuricularis			pLeftAuricularis			pBackOfHead			pRightAcromion			pLeftAcromion			pRightArmLatEpicondyle			pRightArmMedEpicondyle			pLeftArmLatEpicondyle			pLeftArmMedEpicondyle			pRightUlnarStyloid			pRightRadialStyloid			pRightOlecranon			pLeftUlnarStyloid			pLeftRadialStyloid			pLeftOlecranon			pRightTopOfHand			pRightPinky			pRightBallHand			pLeftTopOfHand			pLeftPinky			pLeftBallHand			pRightGreaterTrochanter			pRightKneeLatEpicondyle			pRightKneeMedEpicondyle			pRightPatella			pLeftGreaterTrochanter			pLeftKneeLatEpicondyle			pLeftKneeMedEpicondyle			pLeftPatella			pRightTibialTub			pRightLatMalleolus			pRightMedMalleolus			pLeftTibialTub			pLeftLatMalleolus			pLeftMedMalleolus			pRightHeelFoot			pRightFirstMetatarsal			pRightFifthMetatarsal			pRightPivotFoot			pRightHeelCenter			pRightToe			pLeftHeelFoot			pLeftFirstMetatarsal			pLeftFifthMetatarsal			pLeftPivotFoot			pLeftHeelCenter			pLeftToe			
		X1	Y1	Z1	X2	Y2	Z2	X3	Y3	Z3	X4	Y4	Z4	X5	Y5	Z5	X6	Y6	Z6	X7	Y7	Z7	X8	Y8	Z8	X9	Y9	Z9	X10	Y10	Z10	X11	Y11	Z11	X12	Y12	Z12	X13	Y13	Z13	X14	Y14	Z14	X15	Y15	Z15	X16	Y16	Z16	X17	Y17	Z17	X18	Y18	Z18	X19	Y19	Z19	X20	Y20	Z20	X21	Y21	Z21	X22	Y22	Z22	X23	Y23	Z23	X24	Y24	Z24	X25	Y25	Z25	X26	Y26	Z26	X27	Y27	Z27	X28	Y28	Z28	X29	Y29	Z29	X30	Y30	Z30	X31	Y31	Z31	X32	Y32	Z32	X33	Y33	Z33	X34	Y34	Z34	X35	Y35	Z35	X36	Y36	Z36	X37	Y37	Z37	X38	Y38	Z38	X39	Y39	Z39	X40	Y40	Z40	X41	Y41	Z41	X42	Y42	Z42	X43	Y43	Z43	X44	Y44	Z44	X45	Y45	Z45	X46	Y46	Z46	X47	Y47	Z47	X48	Y48	Z48	X49	Y49	Z49	X50	Y50	Z50	X51	Y51	Z51	X52	Y52	Z52	X53	Y53	Z53	X54	Y54	Z54	X55	Y55	Z55	X56	Y56	Z56	X57	Y57	Z57	X58	Y58	Z58	X59	Y59	Z59	X60	Y60	Z60	X61	Y61	Z61	X62	Y62	Z62	X63	Y63	Z63	X64	Y64	Z64	
843	14.033	0.0	1249.9765	7.653898598672058E-14	71.19116000000001	1339.3333	122.51898000000008	50.25258999999999	1347.82191	-126.36714999999991	27.106970000000008	1401.63972	107.29606000000008	9.677019999999995	1408.65697	-99.76948999999992	-46.63078	1194.3478	54.21394000000007	-55.34575	1197.85642	-49.29053999999993	-62.4196	1268.59486	5.885440000000081	-28.06901	1369.66594	4.527260000000085	29.65355	1475.37746	4.357490000000089	90.48861	1567.45062	3.9613500000000905	351.54174	1589.69078	12.676330000000076	241.41614	1698.51479	5.1497600000000885	164.96204	1647.13039	3.8481700000000907	250.13112	1515.21735	11.204970000000076	291.61214	1730.77152	7.922710000000088	569.07659	1775.64799	-27.616289999999925	484.30365	1736.03446	60.94824000000008	455.78191	1747.57898	-82.16976999999991	452.7826	1796.13384	-2.772949999999917	283.18012	1662.07035	204.06625000000008	297.9503	1646.73426	-184.1462999999999	365.74602	1412.90128	189.12629000000007	353.18288	1409.44924	133.32781000000006	397.55002	1421.84261	-198.74671999999995	379.55417	1406.95925	-146.40026999999995	465.85506	1194.57416	164.79227000000006	509.09039	1219.47409	165.41476000000006	335.24361	1404.24289	163.15113000000005	492.11317	1204.138	-230.83366999999996	531.44374	1231.07519	-245.49067999999994	366.42511	1406.67629	-166.09384999999995	551.64664	1130.6832	314.81435	510.44857	1128.36298	239.03933000000004	501.16769	1173.46581	183.01449000000005	608.06762	1170.91923	-382.72325	553.45754	1153.99859	-318.04002	530.82124	1188.1794	-258.2236	2.886130000000009	1208.32571	144.8723200000001	266.42925	961.64663	170.39475000000002	296.98826	979.92544	109.55969000000005	303.26983	999.33607	156.69979000000004	-13.41201000000001	1226.43475	-150.9841199999999	268.12698	1015.40784	-235.53069999999997	300.49689	1024.40577	-173.62041999999997	302.42097	1053.09728	-216.17666999999997	330.09385	946.76326	155.34161000000003	289.85783	572.24567	142.26915	311.13595	576.65975	86.69703000000001	299.98757	972.05933	-214.42234999999997	24.61697999999999	722.38093	-151.94616999999994	47.705999999999996	717.79708	-97.10972999999996	244.86818	501.67701	97.33609000000001	407.45341	466.8171	91.33747	390.75913	461.55416	167.79158	420.52587	459.00758	132.81849	282.6708	495.28225	105.14562000000001	497.60247	439.87991	148.43754	-50.478950000000005	697.36782	-98.29812999999996	63.89095999999999	581.18701	-64.90958999999995	45.04623999999999	566.92614	-139.66596999999996	69.04072	557.24912	-101.63698999999997	-23.145620000000008	669.41199	-99.82607999999996	121.38716	495.33884	-103.05175999999999	
844	14.05	0.0	1249.9765	7.653898598672058E-14	72.32298000000002	1338.0883	122.80193000000008	48.781229999999994	1349.34986	-125.74464999999991	27.899240000000006	1400.45131	108.71083000000009	8.375429999999994	1409.78878	-98.07176999999992	-45.95169	1193.61212	54.04417000000007	-55.74189	1198.30915	-49.34712999999993	-62.4196	1268.42509	6.734300000000081	-28.23878	1369.49617	5.942030000000085	29.03106	1475.43406	5.376120000000089	89.41339	1567.79016	4.131120000000091	350.40993	1591.61487	10.356110000000076	239.54865	1699.7032	2.716360000000089	163.43409	1647.86607	2.7729500000000904	249.45203	1516.51894	10.639060000000077	289.63146	1732.29947	4.697030000000088	566.47342	1778.42094	-33.72808999999993	482.7757	1738.864	55.855070000000076	452.83919	1749.50306	-87.03656999999991	450.34919	1798.45406	-7.866109999999917	283.57625	1665.18284	201.97239000000008	293.706	1646.96062	-186.74947999999992	364.72739	1414.76877	188.73015000000007	352.33401	1411.14696	132.87508000000005	394.49412	1422.06898	-199.42580999999996	377.00758	1407.63834	-146.73981999999995	465.0062	1196.44165	165.35817000000006	508.24153	1221.34158	166.15044000000006	334.33816	1406.05379	162.58523000000005	491.43408	1205.26981	-230.04139999999995	530.59488	1232.48996	-244.64181999999994	363.65216	1406.95925	-166.60316999999995	550.23187	1132.89024	315.88957	509.31676	1130.34366	239.94478000000004	500.26224	1175.38989	183.75017000000005	607.95444	1172.16422	-381.47825	553.28777	1155.187	-316.9082	530.25534	1189.48099	-257.26155	0.3395400000000088	1206.06208	143.6273300000001	242.8875	938.21806	163.32091000000003	275.20082	955.64801	103.16494000000004	282.78398	973.19114	150.87094000000002	-12.676330000000009	1229.09452	-151.5500299999999	281.93512	1038.94959	-241.18977999999998	313.62594	1048.28707	-178.93994999999998	313.68253	1078.22358	-220.64733999999999	308.58936	922.20288	150.19185000000002	271.46583	547.34574	136.89303	293.706	551.873	81.71704000000001	313.06003	995.60108	-219.51551999999998	37.066939999999995	747.16768	-155.17183999999995	60.325739999999996	742.64042	-100.39198999999996	226.08005	478.36162	89.18702000000002	388.26914	441.29467	84.26363	370.44305	433.93788	160.26501	400.66252	432.01379	125.63147	263.7129	471.17459	97.27950000000001	477.11662	411.41476	141.53347	-37.06694000000001	720.23049	-101.18425999999995	80.01932	605.7474	-71.30434999999996	60.608689999999996	592.50516	-146.11731999999998	85.28226	582.65837	-108.54105999999996	-9.167700000000007	692.84056	-103.56106999999996	138.64734	522.16286	-111.65354999999998	
845	14.067	0.0	1249.9765	7.653898598672058E-14	73.39820000000002	1336.78672	123.02829000000008	47.649409999999996	1350.65145	-125.12214999999992	28.861280000000008	1399.3195	110.01242000000009	7.469979999999993	1410.80742	-96.48722999999991	-45.49896	1193.04621	53.87439000000007	-56.19462	1198.81847	-49.34712999999993	-62.36301	1268.3685	7.4699800000000804	-28.29538	1369.38299	7.300210000000085	28.69151	1475.43406	6.564530000000089	88.62112	1568.01652	4.81021000000009	349.67425	1593.256	8.318840000000076	238.07729	1700.72183	1.3581800000000894	162.24568	1648.43198	2.433400000000091	249.05589	1517.59416	10.129740000000076	288.04692	1733.60106	2.6597700000000883	564.37956	1780.4582	-38.70806999999993	481.58729	1741.18422	51.83713000000008	450.2926	1750.97442	-90.82815999999991	448.42511	1800.32156	-11.884059999999916	284.70807	1666.71079	200.50103000000007	289.97101	1647.63971	-188.56037999999992	364.10489	1415.2215	188.39061000000007	351.59833	1411.5431	132.53554000000005	391.608	1422.57829	-199.82193999999996	375.02691	1408.82674	-146.68322999999995	464.21393	1196.83779	166.03726000000006	507.44926	1221.68113	166.94271000000006	333.65907	1406.50652	162.13250000000005	490.30227	1206.23185	-228.17390999999995	529.34988	1233.56519	-242.94408999999993	361.21876	1407.69493	-166.82952999999995	549.15665	1133.34297	316.79502	508.41131	1130.79638	240.73705000000004	499.46997	1175.78603	184.54244000000006	607.44512	1172.39058	-378.93167	552.55209	1155.69631	-314.4748	529.2367	1190.44303	-255.22428999999994	-1.3015899999999914	1204.93027	143.00483000000008	221.89233	920.44856	157.32229000000007	254.99792	936.40715	97.22291000000004	264.05244	952.70529	145.09869000000003	-11.714290000000009	1231.69769	-152.0593499999999	294.32849	1062.49135	-245.15112999999997	325.11386	1071.99859	-182.50516999999996	323.52932	1103.01032	-223.47686999999996	288.1601	903.0752	145.72118000000003	249.05589	528.38784	134.0069	272.20151	532.40578	79.17046000000002	325.34023	1019.59556	-223.13732999999996	53.930989999999994	766.6349	-156.58660999999995	77.64251	762.61696	-101.97652999999995	201.80262	462.00689	82.73568000000002	362.46376	418.82815	78.77433	343.10972	409.3209	154.15321	373.8385	407.51	119.9158	238.98274	453.06555	91.11111000000001	448.93443	383.57211	135.87439	-18.448580000000007	735.50999	-102.14630999999996	103.67426	625.04484	-77.92545999999996	83.52794999999999	613.44374	-152.85161999999997	109.22015	603.37059	-116.01103999999995	10.469289999999994	709.36506	-105.88128999999996	164.84886	545.59143	-122.06624999999998	
846	14.083	0.0	1249.9765	7.653898598672058E-14	74.41684000000001	1335.59831	123.31125000000009	46.857139999999994	1351.72667	-124.55623999999992	29.823330000000006	1398.24427	111.14423000000008	6.904069999999994	1411.71287	-95.01586999999992	-45.15942	1192.59348	53.70462000000007	-56.59075	1199.32778	-49.40372999999993	-62.24983	1268.31191	8.092480000000082	-28.1256	1369.26981	8.545200000000085	28.63492	1475.37746	7.809520000000089	88.28157	1568.12971	5.715670000000091	349.22152	1594.61418	6.734300000000077	237.05866	1701.45751	0.6790900000000896	161.45341	1648.82812	2.603170000000091	248.9993	1518.44303	9.620430000000077	286.85852	1734.61969	1.3581800000000885	562.73843	1781.92956	-42.89578999999993	480.9082	1742.93853	48.66805000000008	448.19875	1751.99305	-93.71427999999992	447.01034	1801.73632	-15.053139999999917	286.3492	1667.2767	199.4258100000001	286.80193	1648.43198	-189.86196999999993	363.76535	1414.76877	188.10766000000007	351.03243	1411.03378	132.30918000000005	389.06141	1423.08761	-199.93511999999996	373.44236	1410.01515	-146.28708999999995	463.59143	1196.27188	166.82953000000006	506.82676	1221.11522	167.84817000000007	333.20634	1406.05379	161.84955000000005	489.00068	1206.85435	-225.74049999999994	527.99171	1234.18768	-240.68045999999995	359.1249	1408.54379	-166.65975999999995	548.36438	1132.72047	317.64388	507.73222	1130.17388	241.58592000000002	498.84747	1175.22012	185.39130000000006	606.82262	1171.93786	-375.70599	551.64664	1155.7529	-311.36231	528.0483	1190.95235	-252.50792999999993	-2.320219999999991	1204.59072	142.83506000000008	202.87784	906.69701	153.19116000000005	236.1532	920.8447	92.69565000000004	246.84886	936.29397	140.45824000000002	-10.63906000000001	1234.30087	-152.5120699999999	305.19392	1085.58037	-247.81089999999998	335.07384	1095.25739	-184.71220999999997	331.90475	1127.17457	-224.83504999999997	268.46652	887.7957	141.92960000000002	222.85438	513.78743	131.96963000000002	246.84886	517.06969	77.41615000000002	336.88474	1043.53345	-225.51413999999997	74.58660999999998	781.51827	-157.54864999999995	98.80745	778.23601	-103.10834999999996	172.77156	451.25465	76.96342000000001	330.94271	399.5307	73.51139000000002	309.83436	387.87301	148.15459	340.95927	385.83574	114.31332000000002	209.2726	439.9365	85.50862000000001	414.41407	357.08764	130.3285	4.697029999999994	744.6211	-102.88197999999996	133.49758	640.66389	-85.39543999999997	112.50240999999998	630.87369	-160.32159999999996	139.4962	620.91372	-124.44305999999997	35.029669999999996	720.40026	-108.20151999999996	198.35058	566.5866	-133.89371999999997	
